<svg xmlns="http://www.w3.org/2000/svg" viewBox="0 0 796.84 796.84"><defs><style>      .cls-1 {        fill: #429900;      }      .cls-2 {        fill: #fff;      }      .cls-3 {        isolation: isolate;      }      .cls-4 {        fill: #64d90b;      }      .cls-5 {        mix-blend-mode: multiply;        opacity: .3;      }    </style></defs><g class="cls-3"><g id="Camada_2" data-name="Camada 2"><g id="Layer_1" data-name="Layer 1"><g><path class="cls-4" d="M724.41,398.42c0,90.01-36.55,171.58-95.48,230.51-58.93,58.93-140.51,95.48-230.52,95.48s-171.58-36.55-230.51-95.48c-58.93-58.93-95.48-140.51-95.48-230.51s36.55-171.59,95.48-230.52c58.93-58.93,140.51-95.48,230.51-95.48s171.59,36.55,230.52,95.48c58.93,58.93,95.48,140.51,95.48,230.52Z"></path><g class="cls-5"><polygon class="cls-1" points="544.19 236.51 335.33 445.36 252.64 362.68 195.16 420.16 335.33 560.33 601.67 293.99 544.19 236.51"></polygon></g><polygon class="cls-2" points="544.19 236.51 335.33 445.36 252.64 362.68 195.16 420.16 335.33 560.33 601.67 293.99 544.19 236.51"></polygon><path class="cls-4" d="M398.44,796.84h-.02c-106.42,0-206.47-41.44-281.72-116.7-4.32-4.32-8.54-8.74-12.66-13.25-2.38-2.6-2.19-6.64.41-9.01,2.6-2.38,6.64-2.19,9.01.41,3.99,4.37,8.07,8.65,12.26,12.83,72.84,72.84,169.69,112.96,272.7,112.96h.02c67.1,0,133.23-17.54,191.23-50.72,3.06-1.75,6.96-.68,8.71,2.37,1.75,3.06.69,6.96-2.37,8.71-59.93,34.28-128.25,52.4-197.57,52.4ZM692.57,663.96c-1.5,0-3-.52-4.22-1.59-2.64-2.33-2.9-6.36-.57-9.01,62.09-70.45,96.29-160.99,96.29-254.94v-1.15c0-3.52,2.86-6.38,6.38-6.38s6.38,2.86,6.38,6.38v1.15c0,97.06-35.33,190.6-99.47,263.38-1.26,1.43-3.02,2.16-4.79,2.16ZM6.38,405.08c-3.52,0-6.38-2.57-6.38-6.09v-.57c0-96.85,35.19-190.23,99.08-262.95,2.33-2.64,6.36-2.91,9.01-.58,2.65,2.33,2.91,6.36.58,9.01C46.82,214.28,12.76,304.68,12.76,398.42c0,3.52-2.86,6.66-6.38,6.66ZM687.7,140.2c-1.73,0-3.45-.7-4.7-2.07-3.87-4.23-7.83-8.37-11.88-12.42C598.28,52.88,501.43,12.76,398.42,12.76h-.02c-67.3,0-133.59,17.63-191.72,50.99-3.05,1.75-6.96.69-8.71-2.36-1.75-3.06-.7-6.96,2.36-8.71C260.38,18.22,328.88,0,398.4,0h.02c106.42,0,206.47,41.44,281.72,116.7,4.18,4.18,8.27,8.46,12.26,12.82,2.38,2.6,2.2,6.64-.4,9.01-1.23,1.12-2.77,1.68-4.31,1.68Z"></path></g></g></g></g></svg>